<svg width="104" height="32" viewBox="0 0 104 32" fill="none" xmlns="http://www.w3.org/2000/svg">
<path d="M101.994 7.46666H104V32L3.33786e-06 32V10.4536L3.00877 17.9203L4.20413 20.9069H5.60551L8.40827 17.9203L10.3702 20.907L16.256 20.9072L19.339 17.9204L21.0207 13.4396L23.4683 15.6803L25.6747 17.9203L26.3638 21.3333L27.7651 20.9069H29.4858L32.6952 10.4536L33.6981 13.4403L35.3028 10.4536L36.5063 15.6803L39.7156 6.72028L41.5209 10.4536H44.9308L48.5413 2.98696L50.7477 6.72028L53.6535 4.48L57.194 10.4533L59.4704 1.90735e-06L61.1179 10.4533L72.1072 14.9333L73.5113 11.9466H74.9153L78.1247 7.46666H81.334L82.5375 11.9466L87.3515 2.98666L89.3574 14.9333L90.3603 10.4533H92.5667L94.5726 1.90735e-06L96.5784 8.95999L97.5813 4.48H100.189L101.994 7.46666Z" fill="url(#paint0_linear_2132_4600)" fill-opacity="0.16"/>
<defs>
<linearGradient id="paint0_linear_2132_4600" x1="52" y1="32" x2="52" y2="1.90735e-06" gradientUnits="userSpaceOnUse">
<stop stop-color="#77B900" stop-opacity="0"/>
<stop offset="0.809892" stop-color="#77B900"/>
</linearGradient>
</defs>
</svg>
